<svg width="20" height="17" viewBox="0 0 20 17" fill="none" xmlns="http://www.w3.org/2000/svg">
<path fill-rule="evenodd" clip-rule="evenodd" d="M2.5 3.97396C2.5 3.05348 3.24619 2.30729 4.16667 2.30729H13.3333C13.7936 2.30729 14.1667 1.9342 14.1667 1.47396C14.1667 1.01372 13.7936 0.640625 13.3333 0.640625H4.16667C2.32572 0.640625 0.833332 2.13301 0.833332 3.97396V13.1406C0.833332 14.9816 2.32572 16.474 4.16666 16.474H15.8333C17.6743 16.474 19.1667 14.9816 19.1667 13.1406V6.47396C19.1667 6.01372 18.7936 5.64062 18.3333 5.64062C17.8731 5.64062 17.5 6.01372 17.5 6.47396V10.3483L14.4532 6.5398C13.0439 4.77815 10.3282 4.896 9.0768 6.77312L8.12711 8.19764C6.99174 7.57449 5.55934 7.92249 4.8396 9.01201L2.5 12.5536V3.97396ZM13.1517 7.58096L17.5 13.0163V13.1406C17.5 14.0611 16.7538 14.8073 15.8333 14.8073H7.28086C6.61528 14.8073 6.21829 14.0655 6.58749 13.5117L10.4635 7.69762C11.0893 6.75906 12.4471 6.70013 13.1517 7.58096ZM5.20073 12.5872C4.72767 13.2968 4.67392 14.1093 4.92316 14.8073H4.58333C4.12309 14.8073 3.75 14.4342 3.75 13.974V13.9355C3.75 13.7722 3.79799 13.6125 3.88802 13.4762L6.23023 9.93066C6.44254 9.60927 6.8409 9.48145 7.19203 9.60026L5.20073 12.5872Z" fill="#5F9A3A"/>
<path d="M4.31917 5.47252C4.72007 5.60615 5.03466 5.92074 5.16829 6.32164C5.30429 6.72965 5.88141 6.72965 6.01741 6.32164C6.15105 5.92074 6.46564 5.60615 6.86654 5.47252C7.27455 5.33652 7.27455 4.7594 6.86654 4.6234C6.46564 4.48976 6.15105 4.17518 6.01741 3.77428C5.88141 3.36627 5.30429 3.36627 5.16829 3.77428C5.03466 4.17518 4.72007 4.48976 4.31917 4.6234C3.91116 4.7594 3.91116 5.33652 4.31917 5.47252Z" fill="#5F9A3A"/>
<path d="M17.5 1.47396C17.5 1.01372 17.1269 0.640625 16.6667 0.640625C16.2064 0.640625 15.8333 1.01372 15.8333 1.47396V2.30729H15C14.5398 2.30729 14.1667 2.68039 14.1667 3.14062C14.1667 3.60086 14.5398 3.97396 15 3.97396H15.8333V4.80729C15.8333 5.26753 16.2064 5.64062 16.6667 5.64062C17.1269 5.64062 17.5 5.26753 17.5 4.80729V3.97396H18.3333C18.7936 3.97396 19.1667 3.60086 19.1667 3.14062C19.1667 2.68039 18.7936 2.30729 18.3333 2.30729H17.5V1.47396Z" fill="#5F9A3A"/>
</svg>
